<?xml version="1.0" encoding="utf-8"?>
<svg version="1.1" xmlns:xlink="http://www.w3.org/1999/xlink" width="50px" height="50px" xmlns="http://www.w3.org/2000/svg">
  <g transform="matrix(1 0 0 1 -617 -445 )">
    <path d="M 41.30859375 31.8786502271252  C 42.2417534722222 29.68310620809  42.7083333333333 27.384815055159  42.7083333333333 24.9837767683322  C 42.7083333333333 21.5011897036556  41.7643229166667 18.3106208089985  39.8763020833333 15.4120700843608  L 15.33203125 39.8442569759896  C 18.3051215277778 41.7694138005624  21.5277777777778 42.7319922128488  25 42.7319922128488  C 27.4088541666667 42.7319922128488  29.7037760416667 42.2615184944841  31.884765625 41.3205710577547  C 34.0657552083333 40.3796236210253  35.9483506944445 39.1196192948302  37.5325520833333 37.5405580791694  C 39.1167534722222 35.9614968635085  40.3754340277778 34.0741942461605  41.30859375 31.8786502271252  Z M 7.29166666666667 24.9837767683322  C 7.29166666666667 28.4879948085659  8.25737847222222 31.721825654337  10.1888020833333 34.6852693056457  L 34.765625 10.2206359506814  C 31.8359375 8.25221717499459  28.5807291666667 7.2680077871512  25 7.2680077871512  C 21.7881944444444 7.2680077871512  18.8259548611111 8.05753839498161  16.11328125 9.63659961064244  C 13.4006076388889 11.2156608263033  11.2521701388889 13.3679428942245  9.66796875 16.0934458144062  C 8.08376736111111 18.8189487345879  7.29166666666667 21.7823923858966  7.29166666666667 24.9837767683322  Z M 48.0143229166667 15.2660609993511  C 49.3381076388889 18.3484750162232  50 21.5877136058836  50 24.9837767683322  C 50 28.3798399307809  49.3381076388889 31.6244862643305  48.0143229166667 34.7177157689812  C 46.6905381944445 37.8109452736318  44.9164496527778 40.4715552671425  42.6920572916667 42.6995457495133  C 40.4676649305556 44.9275362318841  37.8092447916667 46.7012762275579  34.716796875 48.0207657365347  C 31.6243489583333 49.3402552455116  28.3854166666667 50  25 50  C 21.6145833333333 50  18.3756510416667 49.3402552455116  15.283203125 48.0207657365347  C 12.1907552083333 46.7012762275579  9.53233506944445 44.9275362318841  7.30794270833333 42.6995457495133  C 5.08355034722222 40.4715552671425  3.30946180555556 37.8109452736318  1.98567708333333 34.7177157689812  C 0.661892361111111 31.6244862643305  0 28.3798399307809  0 24.9837767683322  C 0 21.5877136058836  0.661892361111111 18.3484750162232  1.98567708333333 15.2660609993511  C 3.30946180555556 12.1836469824789  5.08355034722222 9.52844473285745  7.30794270833333 7.3004542504867  C 9.53233506944445 5.07246376811594  12.1907552083333 3.29872377244213  15.283203125 1.97923426346528  C 18.3756510416667 0.659744754488423  21.6145833333333 0  25 0  C 28.3854166666667 0  31.6243489583333 0.659744754488423  34.716796875 1.97923426346528  C 37.8092447916667 3.29872377244213  40.4676649305556 5.07246376811594  42.6920572916667 7.3004542504867  C 44.9164496527778 9.52844473285745  46.6905381944445 12.1836469824789  48.0143229166667 15.2660609993511  Z " fill-rule="nonzero" fill="#d7d7d7" stroke="none" transform="matrix(1 0 0 1 617 445 )" />
  </g>
</svg>