<?xml version="1.0" encoding="utf-8"?>
<!-- Generator: Adobe Illustrator 23.0.3, SVG Export Plug-In . SVG Version: 6.00 Build 0)  -->
<svg version="1.1" id="Layer_1" xmlns="http://www.w3.org/2000/svg" xmlns:xlink="http://www.w3.org/1999/xlink" x="0px" y="0px"
	 viewBox="0 0 398.2 324.4" style="enable-background:new 0 0 398.2 324.4;" xml:space="preserve">
<style type="text/css">
	.st0{fill:#F5F5F5;}
	.st1{fill:#222221;}
	.st2{fill:#12284C;}
	.st3{fill:#FFB600;}
	.st4{opacity:0.5;fill:#FFFFFF;}
	.st5{fill:#EBA900;}
	.st6{fill:#FFFFFF;}
	.st7{fill:#FCDC3E;}
</style>
<g>
	<g id="XMLID_7844_">
		<rect id="XMLID_7846_" x="155.4" class="st0" width="123.4" height="147.6"/>
		<rect id="XMLID_7845_" x="163.1" y="8.9" class="st1" width="108" height="108"/>
	</g>
</g>
<g>
	<g>
		<g>
			<g>
				<path class="st2" d="M5.2,270.4H0.2c-0.1,0-0.2-0.1-0.2-0.2v-9.1c0-0.1,0.1-0.2,0.2-0.2h5.1c0.1,0,0.2-0.1,0.2-0.2v-7.9
					c0-5.8,1.4-10.1,4.2-12.9c2.7-2.6,6.2-3.8,10.3-3.8h6.7c0.1,0,0.2,0.1,0.2,0.2v11.2c0,0.1-0.1,0.2-0.2,0.2h-5.9
					c-3.2-0.1-4.8,1.6-4.6,5.1v8c0,0.1,0.1,0.2,0.2,0.2h10.4c0.1,0,0.2,0.1,0.2,0.2v9.1c0,0.1-0.1,0.2-0.2,0.2H16.2
					c-0.1,0-0.2,0.1-0.2,0.2v51.6c0,0.1-0.1,0.2-0.2,0.2h-5.5c-2.8,0-5-2.5-5-5.6v-46.1C5.4,270.5,5.3,270.4,5.2,270.4z"/>
				<path class="st2" d="M31.2,295.2c0-5.5,0.5-9.7,1.4-12.7c1-2.9,2.4-5.3,4.4-7.3c1.5-1.7,3.5-3.3,6.1-4.6c2.6-1.3,5.9-2,10-2
					c4.2,0.1,7.6,0.8,10.2,2.1c2.6,1.4,4.5,2.9,5.9,4.7c2.1,2,3.6,4.4,4.5,7.3c0.9,2.9,1.3,7.2,1.3,12.6c0,5.5-0.4,9.7-1.3,12.5
					c-0.9,2.9-2.4,5.4-4.5,7.5c-0.7,0.8-1.5,1.5-2.5,2.3c-0.9,0.8-2,1.6-3.4,2.2c-2.6,1.4-6,2.2-10.2,2.3c-4.1-0.1-7.4-0.8-10-2.3
					c-2.6-1.3-4.7-2.8-6.1-4.4c-2-2.1-3.4-4.6-4.4-7.5C31.6,304.9,31.2,300.7,31.2,295.2z M64.3,295.3c0-3.7-0.2-6.4-0.5-8.1
					c-0.3-1.6-1-3.1-2.1-4.3c-0.8-1.2-1.9-2.1-3.5-2.8c-1.5-0.7-3.2-1.1-5.1-1.1c-1.8,0-3.5,0.4-5,1.1c-1.5,0.7-2.7,1.6-3.6,2.8
					c-0.9,1.2-1.6,2.7-2,4.3c-0.4,1.7-0.6,4.4-0.6,8c0,3.6,0.2,6.3,0.6,7.9c0.4,1.7,1.1,3.2,2,4.5c0.9,1,2.1,1.9,3.6,2.7
					c1.5,0.7,3.2,1.1,5,1.1c1.9,0,3.7-0.4,5.1-1.1c1.5-0.8,2.7-1.7,3.5-2.7c1.1-1.3,1.8-2.8,2.1-4.5
					C64.1,301.5,64.3,298.9,64.3,295.3z"/>
				<path class="st2" d="M86.2,242.3h5.6c2.8,0,5.1,2.5,5.1,5.7v13h7.8v9.5h-7.8v35.8c-0.1,3.1,1.2,4.6,3.8,4.6h4v11.6h-5.6
					c-3.7,0-6.8-1.3-9.2-4c-2.5-2.6-3.7-6.3-3.7-11.1v-36.8h-5.4V261h5.4V242.3z"/>
				<path class="st2" d="M111.2,295.2c0-5.5,0.5-9.7,1.4-12.7c1-2.9,2.4-5.3,4.4-7.3c1.5-1.7,3.5-3.3,6.1-4.6c2.6-1.3,5.9-2,10-2
					c4.2,0.1,7.6,0.8,10.2,2.1c2.6,1.4,4.5,2.9,5.9,4.7c2.1,2,3.6,4.4,4.5,7.3c0.9,2.9,1.3,7.2,1.3,12.6c0,5.5-0.4,9.7-1.3,12.5
					c-0.9,2.9-2.4,5.4-4.5,7.5c-0.7,0.8-1.5,1.5-2.5,2.3c-0.9,0.8-2,1.6-3.4,2.2c-2.6,1.4-6,2.2-10.2,2.3c-4.1-0.1-7.4-0.8-10-2.3
					c-2.6-1.3-4.7-2.8-6.1-4.4c-2-2.1-3.4-4.6-4.4-7.5C111.6,304.9,111.2,300.7,111.2,295.2z M144.3,295.3c0-3.7-0.2-6.4-0.5-8.1
					c-0.3-1.6-1-3.1-2.1-4.3c-0.8-1.2-1.9-2.1-3.5-2.8c-1.5-0.7-3.2-1.1-5.1-1.1c-1.8,0-3.5,0.4-5,1.1c-1.5,0.7-2.7,1.6-3.6,2.8
					c-0.9,1.2-1.6,2.7-2,4.3c-0.4,1.7-0.6,4.4-0.6,8c0,3.6,0.2,6.3,0.6,7.9c0.4,1.7,1.1,3.2,2,4.5c0.9,1,2.1,1.9,3.6,2.7
					c1.5,0.7,3.2,1.1,5,1.1c1.9,0,3.7-0.4,5.1-1.1c1.5-0.8,2.7-1.7,3.5-2.7c1.1-1.3,1.8-2.8,2.1-4.5
					C144.1,301.5,144.3,298.9,144.3,295.3z"/>
				<path class="st2" d="M164.8,270.4h-5c-0.1,0-0.2-0.1-0.2-0.2v-9c0-0.1,0.1-0.2,0.2-0.2h5c0.1,0,0.2-0.1,0.2-0.2v-7.9
					c0-5.8,1.4-10.1,4.2-12.9c2.7-2.6,6.2-3.8,10.3-3.8h6.7c0.1,0,0.2,0.1,0.2,0.2v11.2c0,0.1-0.1,0.2-0.2,0.2h-5.9
					c-3.2-0.1-4.8,1.6-4.6,5.1v7.9c0,0.1,0.1,0.2,0.2,0.2h10.3c0.1,0,0.2,0.1,0.2,0.2v9c0,0.1-0.1,0.2-0.2,0.2h-10.3
					c-0.1,0-0.2,0.1-0.2,0.2v51.5c0,0.1-0.1,0.2-0.2,0.2h-5.5c-2.7,0-5-2.5-5-5.6v-46.2C165,270.5,164.9,270.4,164.8,270.4z"/>
				<path class="st2" d="M199.5,299.2c0,4.2,1.2,7.4,3.7,9.5c2.3,2.2,5.3,3.3,9,3.3c4.3,0,8.2-1.7,11.6-5.1l7.7,6.5
					c-5.4,5.7-11.8,8.5-19.1,8.4c-2.8,0-5.5-0.4-8.2-1.2c-1.3-0.4-2.6-1-3.9-1.8c-1.3-0.6-2.6-1.4-3.7-2.4c-2.3-1.9-4.1-4.6-5.5-8.1
					c-1.5-3.3-2.3-7.7-2.3-13c0-5.1,0.7-9.4,2-12.8c1.3-3.5,3-6.2,5.1-8.2c2.1-2,4.5-3.5,7.1-4.4c2.6-0.9,5.1-1.4,7.7-1.4
					c6.1,0.1,11.2,2,15.4,5.9c4.3,3.9,6.4,9.3,6.5,16.1v8.6H199.5z M222,290.6c-0.1-4.1-1.2-7.1-3.3-9.2c-2.1-2-4.7-3-7.9-3
					c-3.2,0-5.8,1-7.9,3c-2,2.1-3.1,5.2-3.3,9.2H222z"/>
				<path class="st2" d="M240.9,269.3h10.7v5.5h0.2c3.5-4.1,8.1-6.2,13.8-6.2c4.3,0.1,8,1.4,11.2,4l-7.8,9c-2.3-1.7-4.6-2.6-7-2.6
					c-2.7,0-5.1,0.9-7,2.6c-2.2,1.7-3.3,4.5-3.4,8.3v31.4h-10.7V269.3z"/>
				<path class="st2" d="M285.6,242.3h5.4c2.8,0,5,2.5,5,5.6v12.8c0,0.1,0.1,0.2,0.2,0.2h7.4c0.1,0,0.2,0.1,0.2,0.2v9
					c0,0.1-0.1,0.2-0.2,0.2h-7.4c-0.1,0-0.2,0.1-0.2,0.2v35.6c-0.1,3.1,1.2,4.6,3.8,4.6h3.8c0.1,0,0.2,0.1,0.2,0.2v11.1
					c0,0.1-0.1,0.2-0.2,0.2h-5.4c-3.7,0-6.8-1.3-9.2-4c-2.5-2.6-3.7-6.3-3.7-11.1v-36.6c0-0.1-0.1-0.2-0.2-0.2h-4.9
					c-0.1,0-0.2-0.1-0.2-0.2v-9c0-0.1,0.1-0.2,0.2-0.2h4.9c0.1,0,0.2-0.1,0.2-0.2v-18.2C285.4,242.4,285.5,242.3,285.6,242.3z"/>
				<path class="st2" d="M341.3,316.7h-0.2c-1,1.8-2.4,3.1-4.5,3.9c-2,0.9-4.7,1.3-8.2,1.3c-5.8-0.1-10.2-1.6-13.3-4.6
					c-3.3-2.9-4.9-6.7-4.9-11.3c0-4.4,1.4-8,4.3-10.9c2.8-2.9,7-4.4,12.5-4.5h14.3v-5.5c0.1-4.6-3.5-6.8-10.6-6.7
					c-2.6,0-4.6,0.3-6.1,0.8c-1.6,0.6-2.8,1.7-3.7,3.2l-8.1-6.3c3.9-5.2,9.7-7.7,17.4-7.6c6.5-0.1,11.7,1.2,15.5,3.7
					c3.9,2.6,5.8,7.1,5.9,13.4v35.5h-10.3V316.7z M341.3,299.2h-12.4c-6,0.1-9,2.2-9,6.3c0,1.8,0.8,3.3,2.3,4.5
					c1.5,1.4,4,2.1,7.4,2.1c4.3,0.1,7.4-0.5,9.2-1.6c1.6-1.1,2.4-3.6,2.4-7.5V299.2z"/>
				<path class="st2" d="M361.6,305.4c4.2,4.4,9.6,6.7,16.2,6.7c3,0,5.4-0.6,7.3-1.8c1.9-1.2,2.8-2.8,2.8-4.9c0-1.9-0.6-3.2-1.7-3.9
					c-1.2-0.8-2.7-1.2-4.6-1.3l-9.1-0.8c-4.3-0.4-7.8-1.9-10.5-4.4c-2.8-2.5-4.2-5.9-4.3-10.4c0.1-5.3,1.9-9.4,5.6-12
					c3.6-2.7,8.1-4,13.5-4c2.4,0,4.5,0.2,6.4,0.5c1.9,0.3,3.6,0.8,5.3,1.4c3.2,1.3,6,3.1,8.5,5.3l-6.4,7.6c-2-1.5-4.1-2.6-6.3-3.6
					c-2.2-0.8-4.7-1.3-7.5-1.3c-3.2,0-5.5,0.6-6.8,1.8c-1.4,1.2-2,2.7-2,4.5c-0.1,1.2,0.4,2.2,1.5,3.1c1,1,2.7,1.6,5.2,1.9l8.5,0.7
					c5.3,0.4,9.2,2,11.6,4.9c2.2,2.8,3.3,6.4,3.3,10.7c-0.1,5.1-2.1,8.9-6.1,11.7c-4,2.8-9,4.2-15.2,4.3c-8.4,0-15.9-3.1-22.6-9.3
					L361.6,305.4z"/>
			</g>
		</g>
		<g>
			<rect x="94.1" y="55.8" class="st3" width="32.9" height="20.3"/>
			<path class="st3" d="M258.3,153.7c0,32.9-26.7,59.6-59.6,59.6s-59.6-26.7-59.6-59.6c0-5.7,0.8-11.2,2.3-16.5H86.4V209
				c0,8,6.5,14.4,14.4,14.4h211.3v-86.3H256C257.5,142.4,258.3,147.9,258.3,153.7z"/>
			<path class="st3" d="M86.4,83.9v53.3h55.2c7.2-24.9,30.1-43.1,57.2-43.1s50.1,18.2,57.2,43.1h56.1V83.9H86.4z M304.4,112h-32.9
				V91.6h23.9c5,0,9,4,9,9V112z"/>
			<path class="st4" d="M86.4,83.9v53.3h55.2c7.2-24.9,30.1-43.1,57.2-43.1s50.1,18.2,57.2,43.1h56.1V83.9H86.4z M304.4,112h-32.9
				V91.6h23.9c5,0,9,4,9,9V112z"/>
			<path class="st5" d="M198.8,213.2c32.9,0,59.6-26.7,59.6-59.6c0-5.7-0.8-11.2-2.3-16.5c-7.2-24.9-30.1-43.1-57.2-43.1
				s-50.1,18.2-57.2,43.1c-1.5,5.2-2.3,10.8-2.3,16.5C139.2,186.6,165.9,213.2,198.8,213.2z M199.3,106.7c26,0,47,21,47,47
				s-21,47-47,47s-47-21-47-47S173.3,106.7,199.3,106.7z"/>
			<path class="st6" d="M295.4,91.6h-23.9V112h32.9v-11.4C304.4,95.7,300.4,91.6,295.4,91.6z"/>
			<path class="st7" d="M199.3,200.6c26,0,47-21,47-47s-21-47-47-47s-47,21-47,47S173.3,200.6,199.3,200.6z M160,153.6
				c0-4.8,3.9-8.7,8.7-8.7s8.7,3.9,8.7,8.7s-3.9,8.7-8.7,8.7S160,158.4,160,153.6z"/>
			
				<ellipse transform="matrix(0.1602 -0.9871 0.9871 0.1602 -9.9963 295.5471)" class="st6" cx="168.7" cy="153.6" rx="8.7" ry="8.7"/>
		</g>
	</g>
</g>
</svg>
